<?xml version="1.0" encoding="UTF-8"?>
<svg xmlns="http://www.w3.org/2000/svg" version="1.1" viewBox="0 0 637.4 328.8">
  <!-- Generator: Adobe Illustrator 29.1.0, SVG Export Plug-In . SVG Version: 2.1.0 Build 142)  -->
  <defs>
    <style>
      .st0 {
        fill: #a2ddf3;
      }

      .st1 {
        fill: #010101;
      }

      .st2 {
        isolation: isolate;
      }

      .st3 {
        mix-blend-mode: multiply;
      }

      .st4 {
        fill: #1d76bb;
      }

      .st5 {
        fill: #fff;
      }

      .st6 {
        fill: #5c95cf;
      }

      .st7 {
        fill: #58be89;
      }
    </style>
  </defs>
  <g class="st2">
    <g id="Layer_1">
      <g>
        <g>
          <path class="st7" d="M488.2,178.1h81.1s0-42.2,0-42.2h-81.1c-15,0-25.7,13.8-21.3,27.4h0c2.9,8.9,11.5,14.9,21.3,14.9Z"/>
          <g>
            <path class="st5" d="M488.7,144.7c-5.4,0-9.7,4.4-9.7,9.8,0,.6,0,1.2.2,1.8,0,0,0,.1,0,.3.1.7.4,1.3.7,1.9,1,2.5,3.4,6.3,8.4,10.4.1.1.3.2.4.2s.3,0,.4-.2c5.1-4.1,7.4-7.9,8.4-10.4.3-.6.5-1.3.7-1.9,0-.2,0-.3,0-.3.1-.6.2-1.2.2-1.8,0-5.4-4.4-9.8-9.7-9.8h0ZM480.5,156.1c-.1-.5-.2-1.1-.2-1.6,0-4.6,3.8-8.4,8.4-8.4,4.6,0,8.4,3.8,8.4,8.4,0,.5,0,1.1-.2,1.6,0,0,0,0,0,0,0,0,0,.1,0,.2h0c-.1.6-.3,1.2-.6,1.7,0,0,0,0,0,0-1,2.3-3,5.7-7.6,9.5-4.5-3.8-6.6-7.3-7.6-9.5,0,0,0,0,0,0-.2-.5-.4-1.1-.6-1.7h0c0-.1,0-.2,0-.2,0,0,0,0,0,0h0ZM480.5,156.1"/>
            <path class="st5" d="M488.7,148.4c-3.4,0-6.2,2.8-6.2,6.2,0,3.4,2.8,6.2,6.2,6.2,3.4,0,6.2-2.8,6.2-6.2,0-3.4-2.8-6.2-6.2-6.2h0ZM488.7,159.5c-2.7,0-4.8-2.2-4.8-4.8,0-2.7,2.2-4.8,4.8-4.8,2.6,0,4.8,2.2,4.8,4.8,0,2.7-2.2,4.8-4.8,4.8h0ZM488.7,159.5"/>
          </g>
        </g>
        <g>
          <path class="st0" d="M488.2,243.6h81.1s0-42.2,0-42.2h-81.1c-15,0-25.7,13.8-21.3,27.4h0c2.9,8.9,11.5,14.9,21.3,14.9Z"/>
          <g class="st3">
            <path class="st4" d="M480.1,227.6c-.5.5-.7,1-.7,1.6,0,.6.2,1.1.7,1.6.2.2.4.4.6.6.3.3.6.5.8.8,0,0,0,0,0,0,.7.7,1.6,1.1,2.6,1.1s.2,0,.3,0c1.5-.1,2.9-.7,4-1.2,2.7-1.3,5.1-3.2,7.1-5.6,1.6-2,2.7-3.8,3.4-5.8.3-.8.7-2,.6-3.4,0-.8-.4-1.5-1-2.1l-1.5-1.6h0c-.5-.4-1-.7-1.5-.7s-1.1.2-1.5.7c-.3.3-.6.6-.8.8-.1.1-.3.3-.4.4l-1.2,1.2c-.9,1-.9,2.2,0,3.1.1.1.3.3.4.4.3.3.7.7,1,1-.3.6-.7,1.2-1.2,1.9-1.2,1.4-2.4,2.6-3.7,3.4-.1,0-.3.2-.4.2-.1,0-.2.1-.3.2l-1.4-1.4c-.5-.5-1-.7-1.5-.7-.6,0-1.1.2-1.5.7l-2.5,2.5ZM480.9,229.8c-.5-.5-.5-1,0-1.4l2.5-2.5h0c.1-.2.4-.3.6-.3s.5.2.7.3l1.5,1.6c0,0,.3.3.7.3s.3,0,.4-.1c0,0,0,0,0,0,.1,0,.3-.2.4-.2.2,0,.4-.2.6-.3,1.4-.9,2.8-2.1,4-3.7h0c.7-.9,1.1-1.6,1.5-2.4h0c0-.3.2-.7-.2-1.1,0,0,0,0,0,0-.4-.4-.8-.7-1.1-1.1-.1-.1-.3-.3-.4-.4-.5-.5-.5-.9,0-1.4l1.2-1.2c.1-.1.3-.3.4-.4.3-.3.5-.6.8-.8h0c.1-.2.4-.3.7-.3s.5.1.7.3l1.5,1.5c.4.4.6.8.6,1.3,0,.8,0,1.7-.5,2.8-.7,1.9-1.7,3.6-3.2,5.4-1.9,2.2-4.1,4-6.6,5.3-.9.4-2.2,1-3.5,1.1,0,0-.1,0-.2,0-.7,0-1.2-.2-1.7-.7-.3-.3-.6-.6-.9-.9-.2-.2-.4-.4-.5-.6,0,0,0,0,0,0h0ZM480.9,229.8"/>
            <path class="st4" d="M487.9,216.8c.3,0,.5-.4.5-.7,0-.3-.4-.6-.7-.5-1.4.2-2.7.9-3.8,2-1,1-1.7,2.4-2,3.8,0,.3.2.7.5.7,0,0,0,0,.1,0,.3,0,.5-.2.6-.5.2-1.2.8-2.3,1.6-3.1.9-.9,1.9-1.4,3.1-1.6h0ZM487.9,216.8"/>
            <path class="st4" d="M478.1,221.2c0,.3.2.6.5.7,0,0,0,0,.1,0,.3,0,.5-.2.6-.5.4-2.1,1.3-4,2.9-5.6,1.5-1.5,3.4-2.5,5.5-2.9.3,0,.6-.4.5-.7,0-.3-.4-.6-.7-.5-2.4.4-4.5,1.5-6.2,3.2-1.7,1.7-2.8,3.9-3.2,6.2h0ZM478.1,221.2"/>
          </g>
        </g>
        <g>
          <path class="st6" d="M488.2,309.2h81.1s0-42.2,0-42.2h-81.1c-15,0-25.7,13.8-21.3,27.4h0c2.9,8.9,11.5,14.9,21.3,14.9Z"/>
          <path class="st5" d="M497.7,282.7c-.9-1.5-2.1-2.7-3.6-3.5-1.5-.8-3.3-1.2-5.3-1.2s-3.8.4-5.3,1.3c-1.6.9-2.8,2.1-3.7,3.6-.9,1.5-1.3,3.3-1.3,5.2s.4,3.7,1.3,5.2c.9,1.5,2.1,2.7,3.6,3.6,1.5.9,3.3,1.3,5.3,1.3s1.6,0,2.4-.3c.8-.2,1.6-.4,2.2-.8h.2c0-.1-.5-1.7-.5-1.7h-.3c-.6.4-1.2.7-1.9.8-.7.2-1.4.2-2.1.2-1.7,0-3.2-.4-4.4-1.1-1.3-.7-2.3-1.7-3-3-.7-1.3-1.1-2.8-1.1-4.4s.4-3.1,1.1-4.4c.7-1.3,1.7-2.3,3-3,1.3-.7,2.8-1.1,4.5-1.1s3.2.3,4.5,1c1.3.7,2.3,1.6,3,2.9.7,1.2,1.1,2.7,1.1,4.3s-.2,2.5-.6,3.3c-.3.7-.8,1.1-1.4,1.1s-.6,0-.8-.3c-.2-.2-.3-.6-.3-1.1v-8.5h-1.9v1.6c-.4-.4-.8-.8-1.4-1.1-.8-.4-1.7-.6-2.6-.6s-2,.3-2.9.8c-.8.5-1.5,1.2-2,2.1-.5.9-.7,1.9-.7,3s.2,2.1.7,3c.5.9,1.2,1.6,2,2.1.8.5,1.8.8,2.9.8s1.9-.2,2.7-.7c.6-.3,1.1-.7,1.5-1.3.1.5.4.9.7,1.2.5.5,1.1.7,1.9.7,1.2,0,2.2-.6,2.8-1.7.7-1.1,1-2.6,1-4.4s-.4-3.6-1.3-5.1ZM491.9,290.2c-.3.6-.8,1.1-1.4,1.4-.6.3-1.2.5-1.9.5s-1.4-.2-2-.5c-.6-.3-1-.8-1.4-1.4-.3-.6-.5-1.3-.5-2.1s.2-1.5.5-2.1c.3-.6.8-1.1,1.4-1.4.6-.3,1.2-.5,2-.5s1.4.2,1.9.5c.6.3,1,.8,1.4,1.4.3.6.5,1.3.5,2.1s-.2,1.5-.5,2.2Z"/>
        </g>
        <rect class="st7" x="569.5" y="7.1" width="60.8" height="104.9"/>
        <rect class="st6" x="569.5" y="112" width="60.8" height="104.9"/>
        <rect class="st0" x="569.5" y="216.8" width="60.8" height="104.9"/>
        <g>
          <path class="st7" d="M488.2,112.5h81.1s0-42.2,0-42.2h-81.1c-15,0-25.7,13.8-21.3,27.4h0c2.9,8.9,11.5,14.9,21.3,14.9Z"/>
          <g>
            <path class="st5" d="M488.7,79.1c-5.4,0-9.7,4.4-9.7,9.8,0,.6,0,1.2.2,1.8,0,0,0,.1,0,.3.1.7.4,1.3.7,1.9,1,2.5,3.4,6.3,8.4,10.4.1.1.3.2.4.2s.3,0,.4-.2c5.1-4.1,7.4-7.9,8.4-10.4.3-.6.5-1.3.7-1.9,0-.2,0-.3,0-.3.1-.6.2-1.2.2-1.8,0-5.4-4.4-9.8-9.7-9.8h0ZM480.5,90.6c-.1-.5-.2-1.1-.2-1.6,0-4.6,3.8-8.4,8.4-8.4,4.6,0,8.4,3.8,8.4,8.4,0,.5,0,1.1-.2,1.6,0,0,0,0,0,0,0,0,0,.1,0,.2h0c-.1.6-.3,1.2-.6,1.7,0,0,0,0,0,0-1,2.3-3,5.7-7.6,9.5-4.5-3.8-6.6-7.3-7.6-9.5,0,0,0,0,0,0-.2-.5-.4-1.1-.6-1.7h0c0-.1,0-.2,0-.2,0,0,0,0,0,0h0ZM480.5,90.6"/>
            <path class="st5" d="M488.7,82.8c-3.4,0-6.2,2.8-6.2,6.2,0,3.4,2.8,6.2,6.2,6.2,3.4,0,6.2-2.8,6.2-6.2,0-3.4-2.8-6.2-6.2-6.2h0ZM488.7,93.9c-2.7,0-4.8-2.2-4.8-4.8,0-2.7,2.2-4.8,4.8-4.8,2.6,0,4.8,2.2,4.8,4.8,0,2.7-2.2,4.8-4.8,4.8h0ZM488.7,93.9"/>
          </g>
        </g>
        <g>
          <path class="st1" d="M11.9,38.9l-4.8-17.6h2.3l3.6,14.5h0l4-14.5h2.2l4,14.5h0l3.6-14.5h2.3l-4.8,17.6h-2.1l-4.1-14.1h0l-4.1,14.1h-2.1Z"/>
          <path class="st1" d="M33,39.1c-.8,0-1.6-.2-2.2-.5s-1.1-.8-1.5-1.3c-.4-.6-.5-1.2-.5-2h0c0-.7.2-1.4.5-1.9.4-.5.9-.9,1.6-1.3.7-.3,1.5-.5,2.5-.5l4.7-.3v1.6l-4.5.3c-.8,0-1.5.3-2,.6-.5.4-.7.8-.7,1.4h0c0,.6.2,1.1.7,1.5.5.4,1.1.5,1.8.5s1.3-.1,1.8-.4c.5-.3,1-.7,1.3-1.2s.5-1,.5-1.6v-3.7c0-.8-.2-1.4-.7-1.8-.5-.4-1.2-.7-2.1-.7s-1.5.2-2,.5c-.5.4-.8.8-.9,1.4h0c0,.1-2.1.1-2.1.1h0c0-.8.3-1.5.7-2,.4-.6,1-1,1.7-1.4.7-.3,1.6-.5,2.6-.5s1.9.2,2.6.5c.7.3,1.3.8,1.7,1.4.4.6.6,1.4.6,2.2v8.8h-2.1v-2.1h0c-.2.5-.6.9-1,1.2-.4.3-.9.6-1.4.8-.5.2-1,.3-1.6.3Z"/>
          <path class="st1" d="M42,38.9v-17.6h2.1v17.6h-2.1Z"/>
          <path class="st1" d="M47.1,38.9v-17.6h2.1v17.6h-2.1ZM48.8,34.6v-2.8h.5l5.6-5.6h2.6l-6,6h-.2l-2.5,2.4ZM55.1,38.9l-4.8-6.1,1.4-1.4,5.9,7.5h-2.5Z"/>
          <path class="st1" d="M64.5,38.9v-17.6h10.9v2h-8.7v5.7h8.3v2h-8.3v6.1h8.7v2h-10.9Z"/>
          <path class="st1" d="M81.7,39.1c-.8,0-1.6-.2-2.2-.5s-1.1-.8-1.5-1.3c-.4-.6-.5-1.2-.5-2h0c0-.7.2-1.4.5-1.9.4-.5.9-.9,1.6-1.3.7-.3,1.5-.5,2.5-.5l4.7-.3v1.6l-4.5.3c-.8,0-1.5.3-2,.6-.5.4-.7.8-.7,1.4h0c0,.6.2,1.1.7,1.5.5.4,1.1.5,1.8.5s1.3-.1,1.8-.4c.5-.3,1-.7,1.3-1.2.3-.5.5-1,.5-1.6v-3.7c0-.8-.2-1.4-.7-1.8-.5-.4-1.2-.7-2.1-.7s-1.5.2-2,.5c-.5.4-.8.8-.9,1.4h0c0,.1-2.1.1-2.1.1h0c0-.8.3-1.5.7-2,.4-.6,1-1,1.7-1.4.7-.3,1.6-.5,2.6-.5s1.9.2,2.6.5,1.3.8,1.7,1.4c.4.6.6,1.4.6,2.2v8.8h-2.1v-2.1h0c-.2.5-.6.9-1,1.2-.4.3-.9.6-1.4.8-.5.2-1,.3-1.6.3Z"/>
          <path class="st1" d="M95.1,39.1c-1,0-1.9-.2-2.6-.5s-1.3-.8-1.7-1.3c-.4-.6-.7-1.2-.8-2h0c0-.1,2.1-.1,2.1-.1h0c.1.8.4,1.3.9,1.6.5.4,1.2.5,2,.5s1.1,0,1.5-.2c.4-.2.7-.4.9-.6.2-.3.3-.6.3-1h0c0-.5-.1-.8-.4-1.1-.3-.3-.8-.5-1.5-.7l-2-.5c-.8-.2-1.5-.4-2-.8-.5-.3-.9-.7-1.2-1.2-.3-.5-.4-1-.4-1.6h0c0-.7.2-1.4.6-2,.4-.6.9-1,1.6-1.3s1.5-.5,2.4-.5,1.7.2,2.4.5c.7.3,1.2.8,1.6,1.3.4.6.6,1.2.7,1.9v.2s-2,0-2,0h0c0-.7-.4-1.2-.8-1.6-.5-.4-1.1-.6-1.9-.6s-1,0-1.3.2c-.4.2-.7.4-.9.7-.2.3-.3.6-.3,1h0c0,.3,0,.6.2.8.1.2.3.4.6.6s.7.3,1.1.4l2,.5c1.3.3,2.2.7,2.7,1.3.5.5.8,1.3.8,2.2h0c0,.8-.2,1.4-.6,2-.4.6-1,1-1.8,1.3-.7.3-1.6.5-2.5.5Z"/>
          <path class="st1" d="M103.4,43.2c-.2,0-.4,0-.6,0-.2,0-.4,0-.5,0v-1.7c0,0,.2,0,.3,0,.1,0,.2,0,.4,0,.7,0,1.2-.1,1.6-.4.4-.2.7-.7,1-1.4l.3-.7-4.7-12.7h2.3l3.7,11.1-.5-.5h.6l-.5.5,3.7-11.1h2.2l-5,13.5c-.3.8-.6,1.5-1,2-.4.5-.8.9-1.4,1.1s-1.2.4-1.9.4Z"/>
          <path class="st1" d="M119.8,38.9v-17.6h2.2v17.6h-2.2ZM120.9,32.6v-2h4.6c1.3,0,2.2-.3,2.9-1,.7-.7,1-1.6,1-2.7h0c0-1.2-.3-2.1-1-2.7-.7-.7-1.7-1-2.9-1h-4.6v-2h5.2c1.1,0,2.1.2,2.9.7.8.5,1.5,1.1,2,2,.5.8.7,1.8.7,2.9h0c0,1.1-.2,2.1-.7,3s-1.1,1.5-2,2c-.8.5-1.8.7-2.9.7h-5.2Z"/>
          <path class="st1" d="M138.5,39.1c-1.2,0-2.3-.3-3.1-.8s-1.5-1.3-2-2.3c-.5-1-.7-2.1-.7-3.5h0c0-1.3.2-2.5.7-3.5.5-1,1.1-1.8,2-2.3.9-.6,1.9-.8,3-.8s2.2.3,3,.8c.8.5,1.5,1.3,1.9,2.2.4,1,.7,2.1.7,3.3v.8h-10.2v-1.7h9.2l-1.1,1.5v-.8c0-1-.1-1.8-.4-2.4-.3-.6-.7-1.1-1.2-1.4-.5-.3-1.1-.5-1.8-.5s-1.3.2-1.8.5c-.5.3-1,.8-1.3,1.5-.3.6-.5,1.4-.5,2.4v.8c0,.9.2,1.7.5,2.3.3.6.7,1.1,1.3,1.5.6.3,1.2.5,2,.5s1,0,1.4-.2c.4-.2.8-.4,1.1-.7.3-.3.5-.6.6-1h0c0-.1,2.1-.1,2.1-.1h0c-.1.6-.3,1.1-.6,1.6-.3.5-.7.9-1.1,1.2-.5.3-1,.6-1.6.8-.6.2-1.2.3-1.9.3Z"/>
          <path class="st1" d="M150.9,39.1c-1.1,0-2-.3-2.8-.8-.8-.5-1.4-1.3-1.9-2.3-.4-1-.7-2.2-.7-3.5h0c0-1.3.2-2.5.7-3.5.5-1,1.1-1.7,1.9-2.3.8-.5,1.7-.8,2.8-.8s1.2,0,1.7.3c.5.2,1,.5,1.4.8.4.4.7.8,1,1.3h0v-7h2.1v17.6h-2.1v-2.1h0c-.3.5-.6.9-1,1.3-.4.4-.9.6-1.4.8s-1.1.3-1.7.3ZM151.3,37.3c.7,0,1.4-.2,1.9-.6s1-.9,1.3-1.6c.3-.7.5-1.5.5-2.5h0c0-1-.2-1.8-.5-2.5-.3-.7-.8-1.3-1.3-1.6-.5-.4-1.2-.6-1.9-.6s-1.4.2-1.9.6c-.5.4-1,.9-1.3,1.6-.3.7-.4,1.5-.4,2.5h0c0,1,.1,1.8.4,2.5s.7,1.3,1.3,1.6c.5.4,1.2.6,1.9.6Z"/>
          <path class="st1" d="M165.2,39.1c-1.2,0-2.2-.3-3.1-.8s-1.6-1.3-2.1-2.3c-.5-1-.7-2.2-.7-3.5h0c0-1.4.2-2.5.7-3.5.5-1,1.2-1.7,2.1-2.3.9-.5,1.9-.8,3.1-.8s2.2.3,3.1.8c.9.5,1.6,1.3,2.1,2.3.5,1,.7,2.1.7,3.5h0c0,1.4-.2,2.5-.7,3.5-.5,1-1.2,1.7-2.1,2.3s-1.9.8-3.1.8ZM165.2,37.3c.7,0,1.4-.2,1.9-.6.5-.4,1-.9,1.3-1.6.3-.7.5-1.6.5-2.5h0c0-1-.2-1.9-.5-2.6-.3-.7-.7-1.2-1.3-1.6s-1.2-.5-2-.5-1.4.2-1.9.6c-.6.4-1,.9-1.3,1.6-.3.7-.5,1.5-.5,2.5h0c0,1,.2,1.9.5,2.6.3.7.7,1.2,1.3,1.6.6.4,1.2.6,2,.6Z"/>
          <path class="st1" d="M173.2,38.9v-12.7h2.1v2.1h0c.2-.7.6-1.3,1.1-1.7.5-.4,1.1-.6,1.9-.6s.4,0,.5,0c.2,0,.3,0,.3,0v2.1c0,0-.2,0-.4,0-.2,0-.4,0-.7,0-.5,0-1,.1-1.4.4s-.7.6-1,1.1c-.2.5-.3,1-.3,1.7v7.8h-2.1Z"/>
          <path class="st1" d="M185.7,39.1c-1.2,0-2-.3-2.6-.8-.6-.6-.9-1.4-.9-2.6v-7.7h-1.9v-1.8h1.9v-3.4h2.2v3.4h2.4v1.8h-2.4v7.7c0,.7.1,1.1.4,1.4.3.2.7.4,1.3.4s.3,0,.4,0c.1,0,.2,0,.3,0v1.7c-.1,0-.3,0-.5,0-.2,0-.4,0-.6,0Z"/>
          <path class="st1" d="M189.2,38.9v-17.6h2.1v6.9h0c.3-.7.8-1.3,1.5-1.7.7-.4,1.5-.6,2.4-.6s1.7.2,2.4.7c.7.4,1.2,1,1.6,1.8.4.8.6,1.7.6,2.7v7.8h-2.1v-7.4c0-1.1-.3-2-.8-2.7-.6-.6-1.3-1-2.3-1s-1.2.2-1.7.5c-.5.3-.9.7-1.1,1.3-.3.5-.4,1.2-.4,1.9v7.4h-2.1Z"/>
          <path class="st1" d="M203.8,24c-.4,0-.7-.1-.9-.4-.3-.3-.4-.6-.4-.9s.1-.7.4-.9c.3-.3.6-.4.9-.4s.7.1.9.4c.3.3.4.6.4.9s-.1.7-.4.9c-.3.3-.6.4-.9.4ZM202.7,38.9v-12.7h2.1v12.7h-2.1Z"/>
          <path class="st1" d="M213,39.1c-1.2,0-2.2-.3-3.1-.8-.9-.5-1.6-1.3-2-2.3-.5-1-.7-2.2-.7-3.5h0c0-1.3.2-2.5.7-3.5.5-1,1.2-1.7,2.1-2.3s1.9-.8,3.1-.8,2,.2,2.7.6c.8.4,1.4.9,1.8,1.6.4.7.7,1.3.8,2.1h0c0,0-2.1,0-2.1,0h0c-.2-.7-.5-1.3-1-1.8-.5-.5-1.3-.7-2.2-.7s-1.4.2-1.9.6c-.6.4-1,.9-1.3,1.6-.3.7-.5,1.5-.5,2.5h0c0,1,.2,1.8.5,2.5.3.7.7,1.2,1.3,1.6.6.4,1.2.6,1.9.6s1.6-.2,2.1-.7c.5-.4.9-1,1.1-1.7h0c0,0,2.1,0,2.1,0h0c-.1.9-.4,1.6-.9,2.3-.5.6-1.1,1.2-1.8,1.5-.8.4-1.6.6-2.6.6Z"/>
          <path class="st1" d="M224.7,39.1c-1,0-1.9-.2-2.6-.5s-1.3-.8-1.7-1.3c-.4-.6-.7-1.2-.8-2h0c0-.1,2.1-.1,2.1-.1h0c.1.8.4,1.3.9,1.6.5.4,1.2.5,2,.5s1.1,0,1.5-.2c.4-.2.7-.4.9-.6.2-.3.3-.6.3-1h0c0-.5-.1-.8-.4-1.1-.3-.3-.8-.5-1.5-.7l-2-.5c-.8-.2-1.5-.4-2-.8-.5-.3-.9-.7-1.2-1.2-.3-.5-.4-1-.4-1.6h0c0-.7.2-1.4.6-2,.4-.6.9-1,1.6-1.3s1.5-.5,2.4-.5,1.7.2,2.4.5c.7.3,1.2.8,1.6,1.3.4.6.6,1.2.7,1.9v.2s-2,0-2,0h0c0-.7-.4-1.2-.8-1.6-.5-.4-1.1-.6-1.9-.6s-1,0-1.3.2c-.4.2-.7.4-.9.7-.2.3-.3.6-.3,1h0c0,.3,0,.6.2.8.1.2.3.4.6.6s.7.3,1.1.4l2,.5c1.3.3,2.2.7,2.7,1.3.5.5.8,1.3.8,2.2h0c0,.8-.2,1.4-.6,2-.4.6-1,1-1.8,1.3-.7.3-1.6.5-2.5.5Z"/>
          <path class="st1" d="M235.9,38.9l6.6-17.6h1.6v2.6h-.6l-5.3,15h-2.3ZM238.9,33.8l.7-1.9h7.8l.7,1.9h-9.3ZM248.9,38.9l-5.3-15v-2.6h1.1l6.5,17.6h-2.3Z"/>
          <path class="st1" d="M256.8,39.1c-.9,0-1.7-.2-2.4-.6-.7-.4-1.2-.9-1.5-1.6-.3-.7-.5-1.5-.5-2.5v-8.2h2.1v7.9c0,1,.2,1.8.7,2.4.5.5,1.2.8,2.2.8s1,0,1.4-.3c.4-.2.8-.4,1-.7.3-.3.5-.7.7-1.1.2-.4.2-.9.2-1.5v-7.5h2.1v12.7h-2.1v-1.8h0c-.2.4-.5.7-.9,1-.4.3-.8.6-1.3.7s-1.1.3-1.7.3Z"/>
          <path class="st1" d="M270.2,39.1c-1,0-1.9-.2-2.6-.5-.7-.3-1.3-.8-1.7-1.3-.4-.6-.7-1.2-.8-2h0c0-.1,2.1-.1,2.1-.1h0c.1.8.4,1.3.9,1.6.5.4,1.2.5,2,.5s1.1,0,1.5-.2c.4-.2.7-.4.9-.6.2-.3.3-.6.3-1h0c0-.5-.1-.8-.4-1.1-.3-.3-.8-.5-1.5-.7l-2-.5c-.8-.2-1.5-.4-2-.8-.5-.3-.9-.7-1.2-1.2-.3-.5-.4-1-.4-1.6h0c0-.7.2-1.4.6-2s.9-1,1.6-1.3c.7-.3,1.5-.5,2.4-.5s1.7.2,2.4.5c.7.3,1.2.8,1.6,1.3.4.6.6,1.2.7,1.9v.2s-2,0-2,0h0c0-.7-.4-1.2-.8-1.6-.5-.4-1.1-.6-1.9-.6s-1,0-1.3.2c-.4.2-.7.4-.9.7-.2.3-.3.6-.3,1h0c0,.3,0,.6.2.8.1.2.3.4.6.6s.7.3,1.1.4l2,.5c1.3.3,2.2.7,2.7,1.3.5.5.8,1.3.8,2.2h0c0,.8-.2,1.4-.6,2-.4.6-1,1-1.8,1.3-.7.3-1.6.5-2.5.5Z"/>
          <path class="st1" d="M281.4,39.1c-1.2,0-2-.3-2.6-.8-.6-.6-.9-1.4-.9-2.6v-7.7h-1.9v-1.8h1.9v-3.4h2.2v3.4h2.4v1.8h-2.4v7.7c0,.7.1,1.1.4,1.4.3.2.7.4,1.3.4s.3,0,.4,0c.1,0,.2,0,.3,0v1.7c-.1,0-.3,0-.5,0-.2,0-.4,0-.6,0Z"/>
          <path class="st1" d="M284.8,38.9v-12.7h2.1v2.1h0c.2-.7.6-1.3,1.1-1.7.5-.4,1.1-.6,1.9-.6s.4,0,.5,0c.2,0,.3,0,.3,0v2.1c0,0-.2,0-.4,0-.2,0-.4,0-.7,0-.5,0-1,.1-1.4.4-.4.2-.7.6-1,1.1-.2.5-.3,1-.3,1.7v7.8h-2.1Z"/>
          <path class="st1" d="M296,39.1c-.8,0-1.6-.2-2.2-.5s-1.1-.8-1.5-1.3c-.4-.6-.5-1.2-.5-2h0c0-.7.2-1.4.5-1.9.4-.5.9-.9,1.6-1.3.7-.3,1.5-.5,2.5-.5l4.7-.3v1.6l-4.5.3c-.8,0-1.5.3-2,.6-.5.4-.7.8-.7,1.4h0c0,.6.2,1.1.7,1.5.5.4,1.1.5,1.8.5s1.3-.1,1.8-.4c.5-.3,1-.7,1.3-1.2.3-.5.5-1,.5-1.6v-3.7c0-.8-.2-1.4-.7-1.8-.5-.4-1.2-.7-2.1-.7s-1.5.2-2,.5c-.5.4-.8.8-.9,1.4h0c0,.1-2.1.1-2.1.1h0c0-.8.3-1.5.7-2,.4-.6,1-1,1.7-1.4.7-.3,1.6-.5,2.6-.5s1.9.2,2.6.5,1.3.8,1.7,1.4c.4.6.6,1.4.6,2.2v8.8h-2.1v-2.1h0c-.2.5-.6.9-1,1.2-.4.3-.9.6-1.4.8-.5.2-1,.3-1.6.3Z"/>
          <path class="st1" d="M305,38.9v-17.6h2.1v17.6h-2.1Z"/>
          <path class="st1" d="M311.2,24c-.4,0-.7-.1-.9-.4-.3-.3-.4-.6-.4-.9s.1-.7.4-.9c.3-.3.6-.4.9-.4s.7.1.9.4c.3.3.4.6.4.9s-.1.7-.4.9c-.3.3-.6.4-.9.4ZM310.1,38.9v-12.7h2.1v12.7h-2.1Z"/>
          <path class="st1" d="M318.8,39.1c-.8,0-1.6-.2-2.2-.5s-1.1-.8-1.5-1.3c-.4-.6-.5-1.2-.5-2h0c0-.7.2-1.4.5-1.9.4-.5.9-.9,1.6-1.3.7-.3,1.5-.5,2.5-.5l4.7-.3v1.6l-4.5.3c-.8,0-1.5.3-2,.6-.5.4-.7.8-.7,1.4h0c0,.6.2,1.1.7,1.5.5.4,1.1.5,1.8.5s1.3-.1,1.8-.4c.5-.3,1-.7,1.3-1.2.3-.5.5-1,.5-1.6v-3.7c0-.8-.2-1.4-.7-1.8-.5-.4-1.2-.7-2.1-.7s-1.5.2-2,.5c-.5.4-.8.8-.9,1.4h0c0,.1-2.1.1-2.1.1h0c0-.8.3-1.5.7-2,.4-.6,1-1,1.7-1.4.7-.3,1.6-.5,2.6-.5s1.9.2,2.6.5,1.3.8,1.7,1.4c.4.6.6,1.4.6,2.2v8.8h-2.1v-2.1h0c-.2.5-.6.9-1,1.2-.4.3-.9.6-1.4.8-.5.2-1,.3-1.6.3Z"/>
          <path class="st1" d="M333.1,38.9v-17.6h2.2v17.6h-2.2ZM334.2,32.6v-2h4.6c1.3,0,2.2-.3,2.9-1,.7-.7,1-1.6,1-2.7h0c0-1.2-.3-2.1-1-2.7-.7-.7-1.7-1-2.9-1h-4.6v-2h5.2c1.1,0,2.1.2,2.9.7.8.5,1.5,1.1,2,2,.5.8.7,1.8.7,2.9h0c0,1.1-.2,2.1-.7,3-.5.9-1.2,1.5-2,2-.8.5-1.8.7-2.9.7h-5.2Z"/>
          <path class="st1" d="M351.3,39.1c-1.2,0-2-.3-2.6-.8-.6-.6-.9-1.4-.9-2.6v-7.7h-1.9v-1.8h1.9v-3.4h2.2v3.4h2.4v1.8h-2.4v7.7c0,.7.1,1.1.4,1.4.3.2.7.4,1.3.4s.3,0,.4,0c.1,0,.2,0,.3,0v1.7c-.1,0-.3,0-.5,0-.2,0-.4,0-.6,0Z"/>
          <path class="st1" d="M356,43.2c-.2,0-.4,0-.6,0-.2,0-.4,0-.5,0v-1.7c0,0,.2,0,.3,0,.1,0,.2,0,.4,0,.7,0,1.2-.1,1.6-.4.4-.2.7-.7,1-1.4l.3-.7-4.7-12.7h2.3l3.7,11.1-.5-.5h.6l-.5.5,3.7-11.1h2.2l-5,13.5c-.3.8-.6,1.5-1,2s-.8.9-1.4,1.1c-.5.2-1.2.4-1.9.4Z"/>
          <path class="st1" d="M372.4,38.9v-17.6h2.2v15.6h8.5v2h-10.7Z"/>
          <path class="st1" d="M387.2,38.9v-15.6h-5.6v-2h13.3v2h-5.6v15.6h-2.2Z"/>
          <path class="st1" d="M397.3,38.9v-17.6h5.9c1.7,0,3.2.3,4.5,1,1.2.7,2.2,1.7,2.8,3,.7,1.3,1,2.9,1,4.7h0c0,1.9-.3,3.5-1,4.8-.7,1.3-1.6,2.3-2.8,3-1.2.7-2.7,1-4.5,1h-5.9ZM399.5,36.9h3.6c1.3,0,2.5-.3,3.4-.8.9-.5,1.6-1.3,2.1-2.3.5-1,.7-2.2.7-3.7h0c0-1.5-.2-2.7-.7-3.7-.5-1-1.2-1.8-2.1-2.3-.9-.5-2.1-.8-3.4-.8h-3.6v13.7Z"/>
        </g>
        <g>
          <path class="st1" d="M164.2,97.5v-3.1h-7.4v-1.7c.4-.7.9-1.3,1.3-2,.4-.7.9-1.3,1.3-2,.4-.7.9-1.3,1.3-2s.9-1.3,1.3-2c.4-.7.9-1.3,1.3-2h2.7v10.1h2.1v1.6h-2.1v3.1h-1.8ZM158.6,92.8h5.6v-8.5h0c-.4.6-.7,1.1-1.1,1.7-.4.6-.7,1.1-1.1,1.7-.4.6-.7,1.1-1.1,1.7-.4.6-.7,1.1-1.1,1.7-.4.6-.7,1.1-1.1,1.7h0Z"/>
          <path class="st1" d="M174.8,97.7c-1,0-1.9-.2-2.7-.5s-1.4-.8-1.8-1.4c-.4-.6-.7-1.3-.8-2.1h0c0-.1,1.8-.1,1.8-.1h0c0,.6.2,1,.5,1.4.3.4.7.7,1.2.9.5.2,1.1.3,1.7.3s1.2-.1,1.7-.3c.5-.2.9-.5,1.1-.9.3-.4.4-.9.4-1.4h0c0-.9-.3-1.6-.9-2.1-.6-.5-1.4-.7-2.5-.7h-1.9v-1.6h1.8c.6,0,1.1-.1,1.6-.3.5-.2.8-.5,1.1-.9.3-.4.4-.8.4-1.3h0c0-.5-.1-1-.3-1.3s-.5-.6-1-.8c-.4-.2-.9-.3-1.5-.3s-1.1,0-1.6.3c-.5.2-.8.5-1.1.8s-.4.8-.5,1.3h0c0,.1-1.8.1-1.8.1h0c0-.9.3-1.6.8-2.2.4-.6,1-1.1,1.7-1.4.7-.3,1.5-.5,2.4-.5s1.8.2,2.5.5c.7.3,1.2.8,1.6,1.3.4.6.6,1.2.6,2h0c0,.6-.1,1.2-.4,1.6s-.6.9-1.1,1.2-1,.5-1.6.7h0c1.1.1,2,.5,2.6,1.1.7.6,1,1.5,1,2.5h0c0,.8-.2,1.6-.7,2.2s-1.1,1.2-1.8,1.5-1.7.6-2.6.6Z"/>
          <path class="st1" d="M186.8,97.5v-14.8h1.8v6.4h8.1v-6.4h1.8v14.8h-1.8v-6.7h-8.1v6.7h-1.8Z"/>
          <path class="st1" d="M204,97.7c-.7,0-1.3-.1-1.9-.4s-.9-.6-1.2-1.1c-.3-.5-.4-1-.4-1.7h0c0-.6.2-1.2.5-1.6.3-.4.7-.8,1.3-1.1.6-.3,1.3-.4,2.1-.5l3.9-.2v1.4l-3.7.2c-.7,0-1.3.2-1.7.5-.4.3-.6.7-.6,1.2h0c0,.5.2.9.6,1.2.4.3.9.5,1.5.5s1.1-.1,1.5-.4c.4-.2.8-.6,1.1-1,.3-.4.4-.9.4-1.4v-3.1c0-.6-.2-1.2-.6-1.5-.4-.4-1-.6-1.7-.6s-1.2.1-1.7.4c-.4.3-.7.7-.8,1.2h0c0,0-1.7,0-1.7,0h0c0-.7.3-1.2.6-1.7.3-.5.8-.9,1.4-1.1.6-.3,1.3-.4,2.2-.4s1.6.1,2.2.4c.6.3,1.1.7,1.4,1.2.3.5.5,1.1.5,1.9v7.4h-1.8v-1.7h0c-.2.4-.5.7-.8,1-.3.3-.7.5-1.2.7-.4.2-.9.2-1.4.2Z"/>
          <path class="st1" d="M211.4,97.5v-10.7h1.8v1.8h0c.2-.6.5-1.1.9-1.5s1-.5,1.6-.5.3,0,.4,0c.1,0,.2,0,.3,0v1.7c0,0-.2,0-.4,0-.2,0-.4,0-.6,0-.5,0-.9.1-1.2.3-.3.2-.6.5-.8.9-.2.4-.3.8-.3,1.4v6.6h-1.8Z"/>
          <path class="st1" d="M217.9,97.5v-10.7h1.8v1.8h0c.2-.6.5-1.1.9-1.5s1-.5,1.6-.5.3,0,.4,0c.1,0,.2,0,.3,0v1.7c0,0-.2,0-.4,0-.2,0-.4,0-.6,0-.5,0-.9.1-1.2.3-.3.2-.6.5-.8.9-.2.4-.3.8-.3,1.4v6.6h-1.8Z"/>
          <path class="st1" d="M225.4,85c-.3,0-.6-.1-.8-.3s-.3-.5-.3-.8.1-.6.3-.8c.2-.2.5-.3.8-.3s.6.1.8.3c.2.2.3.5.3.8s-.1.6-.3.8c-.2.2-.5.3-.8.3ZM224.5,97.5v-10.7h1.8v10.7h-1.8Z"/>
          <path class="st1" d="M232.5,97.7c-.8,0-1.6-.1-2.2-.4s-1.1-.6-1.4-1.1c-.4-.5-.6-1-.6-1.7h0c0,0,1.8,0,1.8,0h0c.1.6.4,1.1.8,1.3.4.3,1,.4,1.7.4s.9,0,1.2-.2c.3-.1.6-.3.8-.5.2-.2.3-.5.3-.8h0c0-.4-.1-.7-.3-.9s-.7-.4-1.3-.6l-1.7-.4c-.7-.2-1.2-.4-1.7-.6-.4-.3-.8-.6-1-1s-.3-.8-.3-1.3h0c0-.6.2-1.2.5-1.6.3-.5.8-.8,1.4-1.1.6-.3,1.3-.4,2-.4s1.5.1,2,.4c.6.3,1,.7,1.4,1.1.3.5.5,1,.6,1.6h0c0,.1-1.7.1-1.7.1h0c0-.6-.3-1-.7-1.3-.4-.3-.9-.5-1.6-.5s-.8,0-1.1.2-.6.3-.7.5c-.2.2-.3.5-.3.8h0c0,.2,0,.5.2.7.1.2.3.4.5.5s.6.3,1,.4l1.7.4c1.1.3,1.8.6,2.3,1.1.4.5.7,1.1.7,1.8h0c0,.6-.2,1.2-.5,1.7-.4.5-.9.9-1.5,1.1-.6.3-1.3.4-2.1.4Z"/>
          <path class="st1" d="M242.9,97.7c-1,0-1.8-.2-2.6-.7-.7-.5-1.3-1.1-1.7-1.9-.4-.8-.6-1.8-.6-2.9h0c0-1.2.2-2.1.6-3,.4-.8,1-1.5,1.7-1.9.7-.4,1.6-.7,2.6-.7s1.8.2,2.6.7c.7.4,1.3,1.1,1.7,1.9.4.8.6,1.8.6,2.9h0c0,1.2-.2,2.1-.6,3-.4.8-1,1.5-1.7,1.9s-1.6.7-2.6.7ZM242.9,96.1c.6,0,1.2-.2,1.6-.5.5-.3.8-.8,1.1-1.4.3-.6.4-1.3.4-2.1h0c0-.9-.1-1.6-.4-2.2-.3-.6-.6-1-1.1-1.3-.5-.3-1-.5-1.6-.5s-1.2.2-1.6.5c-.5.3-.8.8-1.1,1.3-.3.6-.4,1.3-.4,2.1h0c0,.9.1,1.6.4,2.2.3.6.6,1,1.1,1.4.5.3,1,.5,1.6.5Z"/>
          <path class="st1" d="M249.6,97.5v-10.7h1.8v1.5h0c.3-.5.7-.9,1.3-1.2.5-.3,1.2-.5,2-.5,1.2,0,2.1.4,2.7,1.1.6.7,1,1.7,1,2.9v6.9h-1.8v-6.6c0-.9-.2-1.5-.6-2-.4-.5-1-.7-1.8-.7s-1,.1-1.5.4c-.4.2-.7.6-1,1.1-.2.5-.3,1-.3,1.6v6.3h-1.8Z"/>
          <path class="st1" d="M270.1,97.7c-1.1,0-2-.2-2.8-.5-.8-.3-1.5-.8-1.9-1.4-.5-.6-.7-1.3-.8-2.2h0c0-.1,1.8-.1,1.8-.1h0c0,.6.3,1.1.6,1.4.3.4.8.6,1.3.8.5.2,1.2.3,1.9.3s1.3-.1,1.8-.3c.5-.2.9-.5,1.2-.9.3-.4.4-.8.4-1.3h0c0-.7-.2-1.2-.7-1.6s-1.2-.7-2.2-.9l-1.6-.4c-1.4-.3-2.5-.8-3.2-1.5-.7-.7-1-1.5-1-2.6h0c0-.8.2-1.5.7-2.2.4-.6,1.1-1.1,1.8-1.5.8-.4,1.7-.5,2.7-.5s1.8.2,2.6.5c.8.3,1.4.8,1.8,1.4.5.6.7,1.3.8,2.1v.2s-1.8,0-1.8,0h0c0-.6-.3-1.1-.6-1.4s-.7-.6-1.2-.8c-.5-.2-1-.3-1.7-.3s-1.2,0-1.7.3-.9.5-1.1.8c-.3.4-.4.8-.4,1.3h0c0,.6.2,1.1.7,1.5s1.2.7,2.1.9l1.6.4c1,.2,1.8.5,2.5.9.6.4,1.1.8,1.4,1.3.3.5.4,1.2.4,1.9h0c0,.9-.2,1.6-.7,2.3-.4.6-1.1,1.1-1.9,1.5-.8.3-1.8.5-2.9.5Z"/>
          <path class="st1" d="M280.9,97.7c-1,0-1.7-.2-2.2-.7s-.7-1.2-.7-2.2v-6.5h-1.6v-1.5h1.6v-2.9h1.8v2.9h2v1.5h-2v6.5c0,.6.1,1,.4,1.2.2.2.6.3,1.1.3s.2,0,.3,0c0,0,.2,0,.3,0v1.4c-.1,0-.3,0-.4,0-.2,0-.4,0-.5,0Z"/>
          <path class="st1" d="M283.1,100.4l.9-5h1.9l-1.5,5h-1.3Z"/>
          <path class="st1" d="M298,97.7c-1.4,0-2.6-.3-3.6-.9-1-.6-1.8-1.5-2.4-2.7-.6-1.1-.8-2.5-.8-4h0c0-1.6.3-2.9.8-4s1.3-2,2.3-2.7c1-.6,2.2-.9,3.6-.9s2,.2,2.8.6,1.5.9,2.1,1.6c.6.7.9,1.5,1.1,2.5h0c0,.1-1.9.1-1.9.1v-.2c-.3-.6-.5-1.1-.9-1.5-.4-.4-.8-.7-1.4-1s-1.2-.3-1.9-.3-1.8.2-2.6.7c-.7.5-1.3,1.2-1.7,2.1-.4.9-.6,1.9-.6,3.1h0c0,1.2.2,2.2.6,3.1.4.9,1,1.6,1.7,2.1s1.6.7,2.6.7,1.3-.1,1.9-.3c.5-.2,1-.6,1.4-1,.4-.4.7-1,.9-1.6h0c0,0,1.9,0,1.9,0h0c-.2,1-.6,1.9-1.1,2.6-.6.7-1.3,1.2-2.1,1.6s-1.8.6-2.8.6Z"/>
          <path class="st1" d="M309.1,97.7c-.7,0-1.3-.1-1.9-.4s-.9-.6-1.2-1.1c-.3-.5-.4-1-.4-1.7h0c0-.6.2-1.2.5-1.6.3-.4.7-.8,1.3-1.1.6-.3,1.3-.4,2.1-.5l3.9-.2v1.4l-3.7.2c-.7,0-1.3.2-1.7.5-.4.3-.6.7-.6,1.2h0c0,.5.2.9.6,1.2.4.3.9.5,1.5.5s1.1-.1,1.5-.4c.4-.2.8-.6,1.1-1,.3-.4.4-.9.4-1.4v-3.1c0-.6-.2-1.2-.6-1.5-.4-.4-1-.6-1.7-.6s-1.2.1-1.7.4c-.4.3-.7.7-.8,1.2h0c0,0-1.7,0-1.7,0h0c0-.7.3-1.2.6-1.7.3-.5.8-.9,1.4-1.1.6-.3,1.3-.4,2.2-.4s1.6.1,2.2.4c.6.3,1.1.7,1.4,1.2.3.5.5,1.1.5,1.9v7.4h-1.8v-1.7h0c-.2.4-.5.7-.8,1-.3.3-.7.5-1.2.7-.4.2-.9.2-1.4.2Z"/>
          <path class="st1" d="M316.5,97.5v-10.7h1.8v1.8h0c.2-.6.5-1.1.9-1.5s1-.5,1.6-.5.3,0,.4,0c.1,0,.2,0,.3,0v1.7c0,0-.2,0-.4,0-.2,0-.4,0-.6,0-.5,0-.9.1-1.2.3-.3.2-.6.5-.8.9-.2.4-.3.8-.3,1.4v6.6h-1.8Z"/>
          <path class="st1" d="M326.5,97.7c-.9,0-1.7-.2-2.4-.7-.7-.5-1.2-1.1-1.6-1.9-.4-.8-.6-1.8-.6-2.9h0c0-1.1.2-2.1.6-2.9.4-.8.9-1.5,1.6-1.9.7-.5,1.5-.7,2.3-.7s1,0,1.4.2c.4.2.8.4,1.2.7.3.3.6.7.8,1.1h0v-5.9h1.8v14.8h-1.8v-1.8h0c-.2.4-.5.8-.8,1.1-.3.3-.7.5-1.1.7-.4.2-.9.2-1.4.2ZM326.8,96.1c.6,0,1.1-.2,1.6-.5s.8-.8,1.1-1.4c.3-.6.4-1.3.4-2.1h0c0-.8-.1-1.5-.4-2.1-.3-.6-.6-1.1-1.1-1.4-.5-.3-1-.5-1.6-.5s-1.2.2-1.6.5-.8.8-1.1,1.4-.4,1.3-.4,2.1h0c0,.8.1,1.5.4,2.1s.6,1.1,1.1,1.4c.5.3,1,.5,1.6.5Z"/>
          <path class="st1" d="M335.1,85c-.3,0-.6-.1-.8-.3s-.3-.5-.3-.8.1-.6.3-.8c.2-.2.5-.3.8-.3s.6.1.8.3c.2.2.3.5.3.8s-.1.6-.3.8c-.2.2-.5.3-.8.3ZM334.2,97.5v-10.7h1.8v10.7h-1.8Z"/>
          <path class="st1" d="M339,97.5v-9.2h-1.5v-1.5h1.5v-1.3c0-.7.1-1.2.3-1.7.2-.4.5-.8,1-1s1-.3,1.6-.3.4,0,.6,0,.4,0,.5,0v1.4c-.1,0-.2,0-.4,0-.1,0-.3,0-.4,0-.5,0-.9.1-1.1.4-.2.3-.4.6-.4,1.2v1.3h2.2v1.5h-2.2v9.2h-1.8Z"/>
          <path class="st1" d="M345.4,97.5v-9.2h-1.5v-1.5h1.5v-1.3c0-.7.1-1.2.3-1.7.2-.4.5-.8,1-1s1-.3,1.6-.3.4,0,.6,0,.4,0,.5,0v1.4c-.1,0-.2,0-.4,0-.1,0-.3,0-.4,0-.5,0-.9.1-1.1.4-.2.3-.4.6-.4,1.2v1.3h2.2v1.5h-2.2v9.2h-1.8Z"/>
          <path class="st1" d="M350.4,100c.5-1.2,1-3.5,1.3-5l2.1-.2c-.5,1.8-1.4,4.1-2,5.1h-1.3Z"/>
          <path class="st1" d="M360.1,97.5v-14.8h1.8l9.7,13.9-2.3-2.3h.8v-11.7h1.8v14.8h-1.8l-9.7-13.9,2.3,2.3h-.8v11.7h-1.8Z"/>
          <path class="st1" d="M379.6,97.7c-1.1,0-2-.2-2.8-.5-.8-.3-1.5-.8-1.9-1.4-.5-.6-.7-1.3-.8-2.2h0c0-.1,1.8-.1,1.8-.1h0c0,.6.3,1.1.6,1.4.3.4.8.6,1.3.8.5.2,1.2.3,1.9.3s1.3-.1,1.8-.3c.5-.2.9-.5,1.2-.9.3-.4.4-.8.4-1.3h0c0-.7-.2-1.2-.7-1.6s-1.2-.7-2.2-.9l-1.6-.4c-1.4-.3-2.5-.8-3.2-1.5-.7-.7-1-1.5-1-2.6h0c0-.8.2-1.5.7-2.2.4-.6,1.1-1.1,1.8-1.5.8-.4,1.7-.5,2.7-.5s1.8.2,2.6.5c.8.3,1.4.8,1.8,1.4.5.6.7,1.3.8,2.1v.2s-1.8,0-1.8,0h0c0-.6-.3-1.1-.6-1.4s-.7-.6-1.2-.8c-.5-.2-1-.3-1.7-.3s-1.2,0-1.7.3-.9.5-1.1.8c-.3.4-.4.8-.4,1.3h0c0,.6.2,1.1.7,1.5s1.2.7,2.1.9l1.6.4c1,.2,1.8.5,2.5.9.6.4,1.1.8,1.4,1.3.3.5.4,1.2.4,1.9h0c0,.9-.2,1.6-.7,2.3-.4.6-1.1,1.1-1.9,1.5-.8.3-1.8.5-2.9.5Z"/>
          <path class="st1" d="M390.3,97.5l-4-14.8h1.9l3,12.2h0l3.4-12.2h1.9l3.4,12.2h0l3-12.2h1.9l-4,14.8h-1.7l-3.4-11.9h0l-3.4,11.9h-1.7Z"/>
          <path class="st1" d="M410.7,97.5v-1.3l5.2-5.4c.7-.7,1.2-1.3,1.5-1.7.4-.5.6-.9.7-1.2.1-.4.2-.7.2-1.2h0c0-.5-.1-1-.4-1.4-.2-.4-.6-.7-1-.9-.4-.2-.9-.3-1.4-.3s-1.2.1-1.7.4c-.5.3-.9.6-1.1,1s-.4.9-.4,1.4h0c0,0-1.8,0-1.8,0h0c0-.9.2-1.7.7-2.4.4-.7,1-1.2,1.8-1.6.8-.4,1.6-.6,2.5-.6s1.7.2,2.4.5,1.2.9,1.6,1.5c.4.6.6,1.3.6,2.1h0c0,.6-.1,1.1-.3,1.6-.2.5-.6,1.1-1.1,1.7-.5.6-1.2,1.4-2.1,2.3l-4.1,4.2.5-1.1v1.1l-.5-.5h7.8v1.6h-9.8Z"/>
          <path class="st1" d="M422.6,97.5v-1.3l5.2-5.4c.7-.7,1.2-1.3,1.5-1.7.4-.5.6-.9.7-1.2.1-.4.2-.7.2-1.2h0c0-.5-.1-1-.4-1.4-.2-.4-.6-.7-1-.9-.4-.2-.9-.3-1.4-.3s-1.2.1-1.7.4c-.5.3-.9.6-1.1,1s-.4.9-.4,1.4h0c0,0-1.8,0-1.8,0h0c0-.9.2-1.7.7-2.4.4-.7,1-1.2,1.8-1.6.8-.4,1.6-.6,2.5-.6s1.7.2,2.4.5,1.2.9,1.6,1.5c.4.6.6,1.3.6,2.1h0c0,.6-.1,1.1-.3,1.6-.2.5-.6,1.1-1.1,1.7-.5.6-1.2,1.4-2.1,2.3l-4.1,4.2.5-1.1v1.1l-.5-.5h7.8v1.6h-9.8Z"/>
          <path class="st1" d="M439.6,97.7c-1,0-2-.2-2.8-.5s-1.4-.9-1.9-1.5c-.5-.6-.7-1.4-.7-2.2h0c0-.6.1-1.2.4-1.7s.6-1,1.1-1.3c.5-.4,1-.6,1.7-.8h0c-.8-.3-1.4-.7-1.9-1.3s-.7-1.3-.7-2h0c0-.8.2-1.4.6-2,.4-.6,1-1,1.7-1.4.7-.3,1.6-.5,2.5-.5s1.8.2,2.5.5c.7.3,1.3.8,1.7,1.4.4.6.6,1.2.6,2h0c0,.8-.2,1.5-.7,2.1-.5.6-1.1,1-1.9,1.3h0c.6.2,1.2.4,1.7.8.5.4.8.8,1.1,1.3s.4,1.1.4,1.7h0c0,.8-.2,1.6-.7,2.2-.5.6-1.1,1.1-1.9,1.5-.8.4-1.7.5-2.8.5ZM439.6,96.1c.7,0,1.3-.1,1.8-.4.5-.2.9-.6,1.2-1,.3-.4.5-.9.5-1.4h0c0-.6-.1-1-.4-1.5-.3-.4-.7-.7-1.2-1s-1.1-.4-1.8-.4-1.3.1-1.8.4-.9.6-1.2,1c-.3.4-.4.9-.4,1.4h0c0,.6.2,1,.5,1.4.3.4.7.7,1.2,1,.5.2,1.1.4,1.8.4ZM439.6,88.9c.6,0,1.1-.1,1.6-.3.5-.2.8-.5,1.1-.9s.4-.8.4-1.3h0c0-.5-.1-.9-.4-1.3s-.6-.7-1.1-.9c-.5-.2-1-.3-1.6-.3s-1.1.1-1.6.3c-.5.2-.8.5-1.1.9s-.4.8-.4,1.3h0c0,.5.1.9.4,1.3s.6.7,1.1.9c.5.2,1,.3,1.6.3Z"/>
          <path class="st1" d="M452.2,97.7c-.9,0-1.8-.2-2.5-.5-.7-.4-1.3-.9-1.8-1.5s-.7-1.3-.8-2.1h0c0-.1,1.8-.1,1.8-.1h0c0,.6.2,1,.5,1.4.3.4.7.7,1.1.9s1,.3,1.6.3,1.3-.1,1.8-.4.9-.7,1.2-1.2c.3-.5.4-1.1.4-1.8h0c0-.7-.1-1.2-.4-1.7-.3-.5-.7-.9-1.2-1.2s-1.1-.4-1.7-.4-1,0-1.4.2c-.4.1-.8.4-1.1.7-.1.1-.3.3-.4.4-.1.1-.2.3-.3.5h-1.6l.8-8.4h8.5v1.6h-7l-.5,5h0c.2-.3.5-.6.9-.8s.7-.4,1.1-.5.9-.2,1.4-.2c1,0,1.8.2,2.5.6.7.4,1.3,1,1.7,1.7.4.7.6,1.6.6,2.5h0c0,1-.2,1.9-.7,2.6s-1.1,1.4-1.9,1.8-1.7.6-2.7.6Z"/>
        </g>
        <g>
          <path class="st1" d="M153.5,163v-1.1l1.4-1.4c3.5-3.3,5.1-5.1,5.1-7.1,0-1.4-.7-2.7-2.7-2.7s-2.3.6-2.9,1.2l-.6-1.3c.9-.8,2.3-1.4,3.9-1.4,2.9,0,4.2,2,4.2,4s-1.8,4.6-4.7,7.3l-1.1,1h0s6.1,0,6.1,0v1.5h-8.7Z"/>
          <path class="st1" d="M168.3,151.1h0l-2.4,1.3-.4-1.4,3-1.6h1.6v13.6h-1.8v-11.9Z"/>
          <path class="st1" d="M180.2,149c1.1-.2,2.4-.3,3.9-.3,2.6,0,4.5.6,5.7,1.8,1.3,1.2,2,2.8,2,5.1s-.7,4.2-2,5.5c-1.3,1.3-3.5,2-6.3,2s-2.4,0-3.3-.2v-13.9ZM182,161.6c.5,0,1.1.1,1.8.1,3.9,0,6-2.2,6-6,0-3.3-1.9-5.5-5.7-5.5s-1.7,0-2.1.2v11.2Z"/>
          <path class="st1" d="M203.4,157.8c0,3.8-2.6,5.4-5.1,5.4s-4.9-2-4.9-5.2,2.2-5.4,5-5.4,4.9,2.1,4.9,5.2ZM195.3,158c0,2.2,1.3,3.9,3.1,3.9s3.1-1.7,3.1-3.9-.9-3.9-3-3.9-3.1,2-3.1,3.9Z"/>
          <path class="st1" d="M206.3,152.8l1.3,5.2c.3,1.1.6,2.2.8,3.2h0c.2-1,.6-2.1.9-3.2l1.7-5.2h1.6l1.6,5.1c.4,1.2.7,2.3.9,3.3h0c.2-1,.4-2.1.8-3.3l1.4-5.1h1.8l-3.3,10.2h-1.7l-1.6-4.9c-.4-1.1-.7-2.1-.9-3.3h0c-.3,1.2-.6,2.3-.9,3.4l-1.6,4.8h-1.7l-3.1-10.2h1.9Z"/>
          <path class="st1" d="M221.8,158.3c0,2.5,1.6,3.5,3.5,3.5s2.1-.2,2.8-.5l.3,1.3c-.7.3-1.8.6-3.4.6-3.1,0-5-2.1-5-5.1s1.8-5.5,4.8-5.5,4.2,2.9,4.2,4.8,0,.7,0,.9h-7.1ZM227.3,156.9c0-1.2-.5-3-2.6-3s-2.7,1.7-2.8,3h5.4Z"/>
          <path class="st1" d="M240.4,163.3c-1.1,0-2-.2-2.8-.5-.8-.3-1.5-.8-1.9-1.4-.5-.6-.7-1.3-.8-2.2h0c0-.1,1.8-.1,1.8-.1h0c0,.6.3,1.1.6,1.4.3.4.8.6,1.3.8.5.2,1.2.3,1.9.3s1.3-.1,1.8-.3c.5-.2.9-.5,1.2-.9.3-.4.4-.8.4-1.3h0c0-.7-.2-1.2-.7-1.6s-1.2-.7-2.2-.9l-1.6-.4c-1.4-.3-2.5-.8-3.2-1.5-.7-.7-1-1.5-1-2.6h0c0-.8.2-1.5.7-2.2.4-.6,1.1-1.1,1.8-1.5.8-.4,1.7-.5,2.7-.5s1.8.2,2.6.5,1.4.8,1.8,1.4c.5.6.7,1.3.8,2.1v.2s-1.8,0-1.8,0h0c0-.6-.3-1.1-.6-1.4s-.7-.6-1.2-.8c-.5-.2-1-.3-1.7-.3s-1.2,0-1.7.3-.9.5-1.1.8c-.3.4-.4.8-.4,1.3h0c0,.6.2,1.1.7,1.5s1.2.7,2.1.9l1.6.4c1,.2,1.8.5,2.5.9.6.4,1.1.8,1.4,1.3.3.5.4,1.2.4,1.9h0c0,.9-.2,1.6-.7,2.3-.4.6-1.1,1.1-1.9,1.5-.8.3-1.8.5-2.9.5Z"/>
          <path class="st1" d="M251.2,163.2c-1,0-1.7-.2-2.2-.7s-.7-1.2-.7-2.2v-6.5h-1.6v-1.5h1.6v-2.9h1.8v2.9h2v1.5h-2v6.5c0,.6.1,1,.4,1.2.2.2.6.3,1.1.3s.2,0,.3,0c0,0,.2,0,.3,0v1.4c-.1,0-.3,0-.4,0-.2,0-.4,0-.5,0Z"/>
          <path class="st1" d="M253.3,165.9l.9-5h1.9l-1.5,5h-1.3Z"/>
          <path class="st1" d="M265,150.4h-4.3v-1.6h10.5v1.6h-4.3v12.6h-1.8v-12.6Z"/>
          <path class="st1" d="M276.9,163v-1.3h-.2c-.6.8-1.7,1.5-3.1,1.5-2.1,0-3.1-1.4-3.1-2.9,0-2.5,2.2-3.8,6.1-3.8v-.2c0-.8-.2-2.4-2.3-2.4s-1.9.3-2.6.8l-.4-1.2c.8-.5,2.1-.9,3.3-.9,3.1,0,3.9,2.1,3.9,4.2v3.8c0,.9,0,1.7.2,2.4h-1.7ZM276.7,157.8c-2,0-4.3.3-4.3,2.3s.8,1.8,1.7,1.8,2.2-.8,2.5-1.7c0-.2.1-.4.1-.6v-1.8Z"/>
          <path class="st1" d="M281.4,155.6c0-1,0-1.9,0-2.8h1.6v1.6h.1c.6-1,1.5-1.9,3.2-1.9s2.4.8,2.9,2h0c.3-.6.7-1,1.1-1.3.6-.5,1.3-.7,2.2-.7s3.3.9,3.3,4.4v6h-1.8v-5.8c0-2-.7-3.1-2.2-3.1s-1.9.8-2.2,1.7c0,.3-.1.6-.1.9v6.3h-1.8v-6.1c0-1.6-.7-2.8-2.1-2.8s-2,.9-2.3,1.8c-.1.3-.1.6-.1.9v6.1h-1.8v-7.4Z"/>
          <path class="st1" d="M299.4,152.8l1.3,5.2c.3,1.1.6,2.2.8,3.2h0c.2-1,.6-2.1.9-3.2l1.7-5.2h1.6l1.6,5.1c.4,1.2.7,2.3.9,3.3h0c.2-1,.4-2.1.8-3.3l1.4-5.1h1.8l-3.3,10.2h-1.7l-1.6-4.9c-.4-1.1-.7-2.1-.9-3.3h0c-.3,1.2-.6,2.3-.9,3.4l-1.6,4.8h-1.7l-3.1-10.2h1.9Z"/>
          <path class="st1" d="M323.1,157.8c0,3.8-2.6,5.4-5.1,5.4s-4.9-2-4.9-5.2,2.2-5.4,5-5.4,4.9,2.1,4.9,5.2ZM315,158c0,2.2,1.3,3.9,3.1,3.9s3.1-1.7,3.1-3.9-.9-3.9-3-3.9-3.1,2-3.1,3.9Z"/>
          <path class="st1" d="M325.4,156c0-1.2,0-2.2,0-3.2h1.6v2h.1c.5-1.4,1.6-2.2,2.8-2.2s.4,0,.5,0v1.7c-.2,0-.4,0-.6,0-1.3,0-2.2,1-2.5,2.4,0,.3,0,.5,0,.9v5.4h-1.8v-7Z"/>
          <path class="st1" d="M335,149.9v2.9h2.6v1.4h-2.6v5.5c0,1.3.4,2,1.4,2s.8,0,1.1-.1v1.4c-.3.1-.8.3-1.6.3s-1.6-.3-2-.8c-.5-.5-.7-1.4-.7-2.6v-5.5h-1.6v-1.4h1.6v-2.4l1.8-.5Z"/>
          <path class="st1" d="M339.8,148.1h1.8v6.3h0c.3-.5.8-1,1.3-1.3.5-.3,1.2-.5,1.9-.5,1.4,0,3.5.8,3.5,4.3v6h-1.8v-5.8c0-1.6-.6-3-2.4-3s-2.1.8-2.5,1.8c-.1.3-.1.5-.1.9v6.1h-1.8v-14.9Z"/>
          <path class="st1" d="M350.2,165.6c.5-1.2,1-3.5,1.3-5l2.1-.2c-.5,1.8-1.4,4.1-2,5.1h-1.3Z"/>
          <path class="st1" d="M360.1,163v-14.8h1.8l9.7,13.9-2.3-2.3h.8v-11.7h1.8v14.8h-1.8l-9.7-13.9,2.3,2.3h-.8v11.7h-1.8Z"/>
          <path class="st1" d="M379.6,163.3c-1.1,0-2-.2-2.8-.5-.8-.3-1.5-.8-1.9-1.4-.5-.6-.7-1.3-.8-2.2h0c0-.1,1.8-.1,1.8-.1h0c0,.6.3,1.1.6,1.4.3.4.8.6,1.3.8.5.2,1.2.3,1.9.3s1.3-.1,1.8-.3c.5-.2.9-.5,1.2-.9.3-.4.4-.8.4-1.3h0c0-.7-.2-1.2-.7-1.6s-1.2-.7-2.2-.9l-1.6-.4c-1.4-.3-2.5-.8-3.2-1.5-.7-.7-1-1.5-1-2.6h0c0-.8.2-1.5.7-2.2.4-.6,1.1-1.1,1.8-1.5.8-.4,1.7-.5,2.7-.5s1.8.2,2.6.5,1.4.8,1.8,1.4c.5.6.7,1.3.8,2.1v.2s-1.8,0-1.8,0h0c0-.6-.3-1.1-.6-1.4s-.7-.6-1.2-.8c-.5-.2-1-.3-1.7-.3s-1.2,0-1.7.3-.9.5-1.1.8c-.3.4-.4.8-.4,1.3h0c0,.6.2,1.1.7,1.5s1.2.7,2.1.9l1.6.4c1,.2,1.8.5,2.5.9.6.4,1.1.8,1.4,1.3.3.5.4,1.2.4,1.9h0c0,.9-.2,1.6-.7,2.3-.4.6-1.1,1.1-1.9,1.5-.8.3-1.8.5-2.9.5Z"/>
          <path class="st1" d="M390.3,163l-4-14.8h1.9l3,12.2h0l3.4-12.2h1.9l3.4,12.2h0l3-12.2h1.9l-4,14.8h-1.7l-3.4-11.9h0l-3.4,11.9h-1.7Z"/>
          <path class="st1" d="M410.7,163v-1.3l5.2-5.4c.7-.7,1.2-1.3,1.5-1.7.4-.5.6-.9.7-1.2.1-.4.2-.7.2-1.2h0c0-.5-.1-1-.4-1.4-.2-.4-.6-.7-1-.9-.4-.2-.9-.3-1.4-.3s-1.2.1-1.7.4c-.5.3-.9.6-1.1,1s-.4.9-.4,1.4h0c0,0-1.8,0-1.8,0h0c0-.9.2-1.7.7-2.4.4-.7,1-1.2,1.8-1.6.8-.4,1.6-.6,2.5-.6s1.7.2,2.4.5,1.2.9,1.6,1.5c.4.6.6,1.3.6,2.1h0c0,.6-.1,1.1-.3,1.6-.2.5-.6,1.1-1.1,1.7s-1.2,1.4-2.1,2.3l-4.1,4.2.5-1.1v1.1l-.5-.5h7.8v1.6h-9.8Z"/>
          <path class="st1" d="M422.6,163v-1.3l5.2-5.4c.7-.7,1.2-1.3,1.5-1.7.4-.5.6-.9.7-1.2.1-.4.2-.7.2-1.2h0c0-.5-.1-1-.4-1.4-.2-.4-.6-.7-1-.9-.4-.2-.9-.3-1.4-.3s-1.2.1-1.7.4c-.5.3-.9.6-1.1,1s-.4.9-.4,1.4h0c0,0-1.8,0-1.8,0h0c0-.9.2-1.7.7-2.4.4-.7,1-1.2,1.8-1.6.8-.4,1.6-.6,2.5-.6s1.7.2,2.4.5,1.2.9,1.6,1.5c.4.6.6,1.3.6,2.1h0c0,.6-.1,1.1-.3,1.6-.2.5-.6,1.1-1.1,1.7s-1.2,1.4-2.1,2.3l-4.1,4.2.5-1.1v1.1l-.5-.5h7.8v1.6h-9.8Z"/>
          <path class="st1" d="M439.6,163.3c-1,0-2-.2-2.8-.5s-1.4-.9-1.9-1.5c-.5-.6-.7-1.4-.7-2.2h0c0-.6.1-1.2.4-1.7s.6-1,1.1-1.3,1-.6,1.7-.8h0c-.8-.3-1.4-.7-1.9-1.3s-.7-1.3-.7-2h0c0-.8.2-1.4.6-2,.4-.6,1-1,1.7-1.4.7-.3,1.6-.5,2.5-.5s1.8.2,2.5.5c.7.3,1.3.8,1.7,1.4.4.6.6,1.2.6,2h0c0,.8-.2,1.5-.7,2.1-.5.6-1.1,1-1.9,1.3h0c.6.2,1.2.4,1.7.8.5.4.8.8,1.1,1.3s.4,1.1.4,1.7h0c0,.8-.2,1.6-.7,2.2-.5.6-1.1,1.1-1.9,1.5-.8.4-1.7.5-2.8.5ZM439.6,161.6c.7,0,1.3-.1,1.8-.4.5-.2.9-.6,1.2-1,.3-.4.5-.9.5-1.4h0c0-.6-.1-1-.4-1.5-.3-.4-.7-.7-1.2-1s-1.1-.4-1.8-.4-1.3.1-1.8.4-.9.6-1.2,1c-.3.4-.4.9-.4,1.4h0c0,.6.2,1,.5,1.4.3.4.7.7,1.2,1,.5.2,1.1.4,1.8.4ZM439.6,154.5c.6,0,1.1-.1,1.6-.3s.8-.5,1.1-.9.4-.8.4-1.3h0c0-.5-.1-.9-.4-1.3s-.6-.7-1.1-.9c-.5-.2-1-.3-1.6-.3s-1.1.1-1.6.3c-.5.2-.8.5-1.1.9s-.4.8-.4,1.3h0c0,.5.1.9.4,1.3s.6.7,1.1.9,1,.3,1.6.3Z"/>
          <path class="st1" d="M452.2,163.3c-.9,0-1.8-.2-2.5-.5-.7-.4-1.3-.9-1.8-1.5s-.7-1.3-.8-2.1h0c0-.1,1.8-.1,1.8-.1h0c0,.6.2,1,.5,1.4.3.4.7.7,1.1.9s1,.3,1.6.3,1.3-.1,1.8-.4.9-.7,1.2-1.2c.3-.5.4-1.1.4-1.8h0c0-.7-.1-1.2-.4-1.7-.3-.5-.7-.9-1.2-1.2s-1.1-.4-1.7-.4-1,0-1.4.2c-.4.1-.8.4-1.1.7-.1.1-.3.3-.4.4-.1.1-.2.3-.3.5h-1.6l.8-8.4h8.5v1.6h-7l-.5,5h0c.2-.3.5-.6.9-.8s.7-.4,1.1-.5.9-.2,1.4-.2c1,0,1.8.2,2.5.6.7.4,1.3,1,1.7,1.7.4.7.6,1.6.6,2.5h0c0,1-.2,1.9-.7,2.6s-1.1,1.4-1.9,1.8c-.8.4-1.7.6-2.7.6Z"/>
        </g>
        <g>
          <path class="st1" d="M351.6,222.3c0,4.6-1.7,7.2-4.7,7.2s-4.5-2.5-4.5-7c0-4.6,2-7.1,4.7-7.1s4.5,2.6,4.5,6.9ZM344.2,222.6c0,3.5,1.1,5.6,2.8,5.6s2.8-2.2,2.8-5.7-.9-5.6-2.8-5.6-2.8,2-2.8,5.7Z"/>
          <path class="st1" d="M353.3,229.3v-1.1l1.4-1.4c3.5-3.3,5.1-5.1,5.1-7.1,0-1.4-.7-2.7-2.7-2.7s-2.3.6-2.9,1.2l-.6-1.3c.9-.8,2.3-1.4,3.9-1.4,2.9,0,4.2,2,4.2,4s-1.8,4.6-4.7,7.3l-1.1,1h0s6.1,0,6.1,0v1.5h-8.7Z"/>
          <path class="st1" d="M376.3,217c-.4,0-.9,0-1.4,0-2.9.5-4.4,2.6-4.7,4.9h0c.7-.9,1.8-1.6,3.3-1.6,2.4,0,4.1,1.7,4.1,4.4s-1.7,4.8-4.5,4.8-4.8-2.3-4.8-5.8,1-4.8,2.3-6.2c1.1-1.1,2.6-1.8,4.4-2,.5,0,1-.1,1.3-.1v1.5ZM375.8,224.8c0-2-1.1-3.1-2.8-3.1s-2.1.7-2.6,1.7c-.1.2-.2.5-.2.8,0,2.2,1.1,3.9,3,3.9s2.7-1.3,2.7-3.3Z"/>
          <path class="st1" d="M388.1,215.7v1.2l-5.9,12.4h-1.9l5.9-12.1h0s-6.7,0-6.7,0v-1.5h8.6Z"/>
          <path class="st1" d="M397.8,217c-.4,0-.9,0-1.4,0-2.9.5-4.4,2.6-4.7,4.9h0c.7-.9,1.8-1.6,3.3-1.6,2.4,0,4.1,1.7,4.1,4.4s-1.7,4.8-4.5,4.8-4.8-2.3-4.8-5.8,1-4.8,2.3-6.2c1.1-1.1,2.6-1.8,4.4-2,.5,0,1-.1,1.3-.1v1.5ZM397.3,224.8c0-2-1.1-3.1-2.8-3.1s-2.1.7-2.6,1.7c-.1.2-.2.5-.2.8,0,2.2,1.1,3.9,3,3.9s2.7-1.3,2.7-3.3Z"/>
          <path class="st1" d="M408.6,217c-.4,0-.9,0-1.4,0-2.9.5-4.4,2.6-4.7,4.9h0c.7-.9,1.8-1.6,3.3-1.6,2.4,0,4.1,1.7,4.1,4.4s-1.7,4.8-4.5,4.8-4.8-2.3-4.8-5.8,1-4.8,2.3-6.2c1.1-1.1,2.6-1.8,4.4-2,.5,0,1-.1,1.3-.1v1.5ZM408.1,224.8c0-2-1.1-3.1-2.8-3.1s-2.1.7-2.6,1.7c-.1.2-.2.5-.2.8,0,2.2,1.1,3.9,3,3.9s2.7-1.3,2.7-3.3Z"/>
          <path class="st1" d="M416.5,227.2c.5.3,1.7.9,3,.9,2.4,0,3.1-1.5,3.1-2.6,0-1.9-1.7-2.7-3.5-2.7h-1v-1.4h1c1.3,0,3-.7,3-2.3s-.7-2.1-2.4-2.1-2.1.5-2.7.9l-.5-1.3c.7-.5,2.1-1,3.6-1,2.7,0,3.9,1.6,3.9,3.3s-.8,2.6-2.5,3.2h0c1.7.4,3,1.6,3,3.5s-1.7,4.1-5,4.1-2.9-.5-3.5-.9l.5-1.4Z"/>
          <path class="st1" d="M430.8,217.4h0l-2.4,1.3-.4-1.4,3-1.6h1.6v13.6h-1.8v-11.9Z"/>
          <path class="st1" d="M445.7,217.2h-5.2l-.5,3.5c.3,0,.6,0,1.1,0,1,0,2.1.2,2.9.7,1.1.6,2,1.8,2,3.5,0,2.7-2.1,4.7-5.1,4.7s-2.8-.4-3.4-.8l.5-1.4c.6.3,1.7.8,2.9.8s3.2-1.1,3.2-3c0-1.8-1.2-3-3.9-3s-1.4,0-1.9.1l.9-6.6h6.5v1.6Z"/>
          <path class="st1" d="M448.8,227.2c.5.3,1.7.9,3,.9,2.4,0,3.1-1.5,3.1-2.6,0-1.9-1.7-2.7-3.5-2.7h-1v-1.4h1c1.3,0,3-.7,3-2.3s-.7-2.1-2.4-2.1-2.1.5-2.7.9l-.5-1.3c.7-.5,2.1-1,3.6-1,2.7,0,3.9,1.6,3.9,3.3s-.8,2.6-2.5,3.2h0c1.7.4,3,1.6,3,3.5s-1.7,4.1-5,4.1-2.9-.5-3.5-.9l.5-1.4Z"/>
        </g>
        <g>
          <path class="st1" d="M265.3,280.3c0,.6-.4,1.1-1.2,1.1s-1.1-.5-1.1-1.1.5-1.2,1.2-1.2,1.1.5,1.1,1.2ZM263.2,293.3v-10.2h1.8v10.2h-1.8Z"/>
          <path class="st1" d="M268.2,285.9c0-1,0-1.9,0-2.8h1.6v1.7h.1c.5-1,1.7-1.9,3.4-1.9s3.6.8,3.6,4.3v6.1h-1.8v-5.9c0-1.6-.6-3-2.4-3s-2.2.9-2.5,1.9c0,.2-.1.5-.1.9v6.1h-1.8v-7.4Z"/>
          <path class="st1" d="M280,293.3v-8.8h-1.4v-1.4h1.4v-.5c0-1.4.3-2.7,1.2-3.5.7-.7,1.6-.9,2.5-.9s1.2.1,1.6.3l-.3,1.4c-.3-.1-.7-.2-1.2-.2-1.6,0-2,1.4-2,2.9v.5h2.5v1.4h-2.5v8.8h-1.8Z"/>
          <path class="st1" d="M294.9,288.1c0,3.8-2.6,5.4-5.1,5.4s-4.9-2-4.9-5.2,2.2-5.4,5-5.4,4.9,2.1,4.9,5.2ZM286.8,288.2c0,2.2,1.3,3.9,3.1,3.9s3.1-1.7,3.1-3.9-.9-3.9-3-3.9-3.1,2-3.1,3.9Z"/>
          <path class="st1" d="M306.7,294.6c-1.2.6-2.3.8-3.7.8-3.4,0-6.4-2.5-6.4-6.6s3-8.1,7.7-8.1,6.1,2.6,6.1,6.1-1.8,5-3.7,5-1.6-.6-1.6-1.8h0c-.7,1.2-1.7,1.8-3,1.8s-2.3-1-2.3-2.6c0-2.6,2.1-5,5-5s1.7.2,2.2.4l-.7,3.8c-.3,1.6,0,2.3.6,2.4,1.1,0,2.3-1.4,2.3-3.8s-1.8-5.2-5.1-5.2-6.3,2.7-6.3,7,2.3,5.7,5.4,5.7,2.3-.3,3.2-.7l.3.9ZM305.5,285.6c-.2,0-.6-.1-1-.1-1.8,0-3.3,1.7-3.3,3.8s.5,1.6,1.4,1.6,2.3-1.6,2.6-2.9l.4-2.4Z"/>
          <path class="st1" d="M313.4,283.1l1.3,5.2c.3,1.1.6,2.2.8,3.2h0c.2-1,.6-2.1.9-3.2l1.7-5.2h1.6l1.6,5.1c.4,1.2.7,2.3.9,3.3h0c.2-1,.4-2.1.8-3.3l1.4-5.1h1.8l-3.3,10.2h-1.7l-1.6-4.8c-.4-1.1-.7-2.1-.9-3.3h0c-.3,1.2-.6,2.3-.9,3.4l-1.6,4.8h-1.7l-3.1-10.2h1.9Z"/>
          <path class="st1" d="M333.7,293.3v-1.3h-.2c-.6.8-1.7,1.5-3.1,1.5-2.1,0-3.1-1.4-3.1-2.9,0-2.5,2.2-3.8,6.1-3.8v-.2c0-.8-.2-2.4-2.3-2.4s-1.9.3-2.6.8l-.4-1.2c.8-.5,2.1-.9,3.3-.9,3.1,0,3.9,2.1,3.9,4.2v3.8c0,.9,0,1.7.2,2.4h-1.7ZM333.4,288.1c-2,0-4.3.3-4.3,2.3s.8,1.8,1.7,1.8,2.2-.8,2.5-1.7c0-.2.1-.4.1-.6v-1.8Z"/>
          <path class="st1" d="M338.2,278.4h1.8v14.9h-1.8v-14.9Z"/>
          <path class="st1" d="M344.9,287.8h0c.3-.4.6-.8.9-1.2l3-3.5h2.2l-3.9,4.2,4.5,6h-2.2l-3.5-4.9-.9,1v3.8h-1.8v-14.9h1.8v9.4Z"/>
          <path class="st1" d="M354,288.5c0,2.5,1.6,3.5,3.5,3.5s2.1-.2,2.8-.5l.3,1.3c-.7.3-1.8.6-3.4.6-3.1,0-5-2.1-5-5.1s1.8-5.5,4.8-5.5,4.2,2.9,4.2,4.8,0,.7,0,.9h-7.1ZM359.4,287.2c0-1.2-.5-3-2.6-3s-2.7,1.7-2.8,3h5.4Z"/>
          <path class="st1" d="M369.1,293.3v-1.3h-.2c-.6.8-1.7,1.5-3.1,1.5-2.1,0-3.1-1.4-3.1-2.9,0-2.5,2.2-3.8,6.1-3.8v-.2c0-.8-.2-2.4-2.3-2.4s-1.9.3-2.6.8l-.4-1.2c.8-.5,2.1-.9,3.3-.9,3.1,0,3.9,2.1,3.9,4.2v3.8c0,.9,0,1.7.2,2.4h-1.7ZM368.8,288.1c-2,0-4.3.3-4.3,2.3s.8,1.8,1.7,1.8,2.2-.8,2.5-1.7c0-.2.1-.4.1-.6v-1.8Z"/>
          <path class="st1" d="M373.4,291.4c.5.4,1.5.7,2.4.7,1.3,0,2-.7,2-1.5s-.5-1.4-1.9-1.9c-1.8-.7-2.7-1.7-2.7-2.9s1.3-3,3.5-3,1.9.3,2.5.6l-.5,1.3c-.4-.3-1.1-.6-2.1-.6s-1.7.6-1.7,1.4.6,1.2,1.9,1.7c1.8.7,2.7,1.6,2.7,3.1s-1.4,3-3.8,3-2.1-.3-2.9-.7l.5-1.4Z"/>
          <path class="st1" d="M382.6,283.1l2.2,6c.2.7.5,1.5.7,2.1h0c.2-.6.4-1.4.7-2.1l2-6h2l-2.8,7.2c-1.3,3.5-2.2,5.3-3.5,6.4-.9.8-1.8,1.1-2.3,1.2l-.5-1.6c.5-.1,1.1-.4,1.6-.9.5-.4,1.1-1.1,1.6-2.1,0-.2.1-.3.1-.4s0-.3-.1-.5l-3.8-9.4h2Z"/>
          <path class="st1" d="M390.6,292.2c0-.8.5-1.3,1.3-1.3s1.2.5,1.2,1.3-.5,1.3-1.3,1.3-1.2-.6-1.2-1.3Z"/>
          <path class="st1" d="M402.6,292.9c-.5.3-1.6.6-2.9.6-3.1,0-5.1-2.1-5.1-5.2s2.1-5.4,5.5-5.4,2.1.3,2.6.5l-.4,1.4c-.4-.3-1.1-.5-2.1-.5-2.3,0-3.6,1.7-3.6,3.8s1.5,3.8,3.5,3.8,1.7-.3,2.3-.5l.3,1.4Z"/>
          <path class="st1" d="M413.8,288.1c0,3.8-2.6,5.4-5.1,5.4s-4.9-2-4.9-5.2,2.2-5.4,5-5.4,4.9,2.1,4.9,5.2ZM405.8,288.2c0,2.2,1.3,3.9,3.1,3.9s3.1-1.7,3.1-3.9-.9-3.9-3-3.9-3.1,2-3.1,3.9Z"/>
          <path class="st1" d="M416.2,285.9c0-1,0-1.9,0-2.8h1.6v1.6h.1c.6-1,1.5-1.9,3.2-1.9s2.4.8,2.9,2h0c.3-.6.7-1,1.1-1.3.6-.5,1.3-.7,2.2-.7s3.3.9,3.3,4.4v6h-1.8v-5.8c0-2-.7-3.1-2.2-3.1s-1.9.8-2.2,1.7c0,.3-.1.6-.1.9v6.3h-1.8v-6.1c0-1.6-.7-2.8-2.1-2.8s-2,.9-2.3,1.8c-.1.3-.1.6-.1.9v6.1h-1.8v-7.4Z"/>
          <path class="st1" d="M433.2,292.2c0-.8.5-1.3,1.3-1.3s1.2.5,1.2,1.3-.5,1.3-1.3,1.3-1.2-.6-1.2-1.3Z"/>
          <path class="st1" d="M443.6,293.3v-1.3h-.2c-.6.8-1.7,1.5-3.1,1.5-2.1,0-3.1-1.4-3.1-2.9,0-2.5,2.2-3.8,6.1-3.8v-.2c0-.8-.2-2.4-2.3-2.4s-1.9.3-2.6.8l-.4-1.2c.8-.5,2.1-.9,3.3-.9,3.1,0,3.9,2.1,3.9,4.2v3.8c0,.9,0,1.7.2,2.4h-1.7ZM443.4,288.1c-2,0-4.3.3-4.3,2.3s.8,1.8,1.7,1.8,2.2-.8,2.5-1.7c0-.2.1-.4.1-.6v-1.8Z"/>
          <path class="st1" d="M456.6,290.5c0,1,0,2,0,2.8h-1.6v-1.7h-.1c-.5.8-1.6,1.9-3.4,1.9s-3.5-.9-3.5-4.5v-5.9h1.8v5.6c0,1.9.6,3.2,2.3,3.2s2.1-.9,2.4-1.7c.1-.3.2-.6.2-.9v-6.2h1.8v7.4Z"/>
        </g>
      </g>
    </g>
  </g>
</svg>